<?xml version="1.0" encoding="utf-8"?>
<!-- Generator: Adobe Illustrator 23.1.1, SVG Export Plug-In . SVG Version: 6.00 Build 0)  -->
<svg version="1.1" id="Layer_1" xmlns="http://www.w3.org/2000/svg" xmlns:xlink="http://www.w3.org/1999/xlink" x="0px" y="0px"
	 viewBox="0 0 963.8 783.6" style="enable-background:new 0 0 963.8 783.6;" xml:space="preserve">
<style type="text/css">
	.st0{fill:#70D4CD;}
	.st1{opacity:0.6;}
	.st2{fill:#FFFFFF;}
	.st3{fill:#E0A512;}
	.st4{fill:#0F2D51;}
	.st5{fill:#D88A55;}
	.st6{fill:#0BB9D1;}
	.st7{fill:#1E3D73;}
	.st8{fill:#F9C21C;}
	.st9{fill:#099FAA;}
	.st10{fill:#5184CE;}
	.st11{fill:#D8DDEF;}
	.st12{fill:#FDFDFF;}
</style>
<g>
	<path class="st0" d="M822.6,495.2c0,0-22.2,133.9-215.6,139S207.9,606.1,144.4,472c-77-162.6-59.8-216.4,64.3-292.1
		c124.1-75.7,198.5-238.6,413.7-51S850.7,368,822.6,495.2z"/>
	<g class="st1">
		<path class="st2" d="M736,403.1c-3.8,0-6.9,0-6.9,0c-1.4,0-2.5-1.1-2.5-2.5c0-3.7,0-8.2-0.1-9.5c-0.1-1.4-0.1-2.9,0-5
			c0-1.3,0-2.9,0-4.8v-12.8c0-1.3,0-4.1,0-4.1c0-1.3,1-2.4,2.3-2.5c0.2,0,4.3-0.3,6.3-0.3l0.5,0l23.1,0c1.1,0,2.4,0,3.9,0
			c1.9,0,4,0.1,6.1,0.1c2.2,0,4.1,0,5.8-0.1c1.6-0.1,4.6-0.1,8.9-0.1c7.3,0,15.8,0.1,15.8,0.1c1.2-0.1,5.4-0.1,5.4-0.1
			c0.7,0,1.3,0.3,1.8,0.7c0.5,0.5,0.7,1.1,0.7,1.8c0,0,0,3,0,4.5c0,0.1-0.1,6.1,0,12.4c0.1,3.6,0,7.4,0,10.8c0,3.5-0.1,6.5,0,8
			c0,0.7-0.2,1.3-0.7,1.8c-0.5,0.5-1.1,0.8-1.8,0.8c0,0-24.4,0.5-29.4,0.6c-2.4,0.1-6.8,0-11.6,0c-3.4,0-6.8-0.1-9.7-0.1
			c-2.8,0-4.7,0-5.7,0.1C746.2,403.1,742.1,403.1,736,403.1z M731.7,398.1c1.2,0,2.7,0,4.4,0c5.9,0,10-0.1,11.9-0.2
			c1.2-0.1,3.1-0.1,6.1-0.1c2.9,0,6.4,0,9.8,0.1c4.6,0.1,9,0.1,11.4,0c4-0.1,20.6-0.4,27-0.5c0-1.6,0-3.5,0-5.7
			c0-3.4,0.1-7.2,0-10.7c-0.1-6.4,0-12.4,0-12.5c0-0.5,0-1.2,0-2c-1.1,0-2.2,0-2.8,0.1c-0.1,0.1-8.6-0.1-15.9-0.1
			c-4.2,0-7.1,0-8.7,0.1c-1.8,0.1-3.8,0.1-6,0.1c-2.2,0-4.3,0-6.2-0.1c-1.5,0-2.8,0-3.8,0l-23.6,0c-0.9,0-2.4,0.1-3.6,0.2
			c0,0.6,0,1.3,0,1.7v12.8c0,2,0,3.5,0,4.9c0,2,0,3.5,0,4.7C731.6,392.1,731.7,395.6,731.7,398.1z"/>
	</g>
	<g class="st1">
		<path class="st2" d="M832.4,434.7c-7.2,0.1-14.8,0.4-17.6,0.4c-2.3,0.1-6.7,0-11.4,0c-3.4,0-6.9-0.1-9.8-0.1c-3,0-4.9,0-6.1,0.1
			c-1.9,0.1-6,0.2-11.9,0.2c-1.7,0-3.2,0-4.4,0c0-2.5,0-6-0.1-7.3c-0.1-1.2,0-2.7,0-4.7c0-1.3,0-2.9,0-4.9v-12.8c0-0.5,0-1.1,0-1.7
			c1.2-0.1,2.7-0.2,3.6-0.2l23.6,0c1.1,0,2.4,0,3.8,0c1.9,0,4,0.1,6.2,0.1c2.3,0,4.3,0,6-0.1c1.6-0.1,4.5-0.1,8.7-0.1
			c3.8,0,6.7,0,9.8,0.1c0-2-0.1-2.9-0.4-5.1c-2.9,0-6.2,0-9.4,0c-4.3,0-7.3,0-8.9,0.1c-1.7,0.1-3.6,0.1-5.8,0.1
			c-2.2,0-4.3,0-6.1-0.1c-1.5,0-2.8,0-3.9,0l-23.1,0l-0.5,0c-2.1,0-6.2,0.3-6.3,0.3c-1.3,0.1-2.3,1.2-2.3,2.5c0,0,0,2.7,0,4.1v12.8
			c0,1.9,0,3.5,0,4.8c0,2.1,0,3.6,0,5c0.1,1.3,0.1,5.7,0.1,9.5c0,1.4,1.1,2.5,2.5,2.5c0,0,3.1,0,6.9,0c6.1,0,10.2-0.1,12.2-0.2
			c1-0.1,2.9-0.1,5.7-0.1c2.9,0,6.4,0,9.7,0.1c4.7,0.1,9.2,0.1,11.6,0c2.7-0.1,9.8-0.3,16.9-0.4
			C832.3,437.9,832.3,436.8,832.4,434.7z"/>
	</g>
	<g class="st1">
		<path class="st2" d="M277.5,260.9c-3.8,0-6.9,0-6.9,0c-1.4,0-2.5-1.1-2.5-2.5c0-3.7,0-8.2-0.1-9.5c-0.1-1.4-0.1-2.9,0-5
			c0-1.3,0-2.9,0-4.8v-12.8c0-1.3,0-4.1,0-4.1c0-1.3,1-2.4,2.3-2.5c0.2,0,5-0.4,6.8-0.3l23.1,0c1.1,0,2.4,0,3.9,0
			c1.9,0,4,0.1,6.1,0.1c2.2,0,4.1,0,5.8-0.1c1.6-0.1,4.6-0.1,8.9-0.1c7.3,0,15.8,0.1,15.8,0.1c1.2-0.1,5.4-0.1,5.4-0.1
			c0.7,0,1.3,0.3,1.8,0.7c0.5,0.5,0.7,1.1,0.7,1.8c0,0,0,3,0,4.5c0,0.1-0.1,6.1,0,12.4c0.1,3.6,0,7.4,0,10.8c0,3.5-0.1,6.5,0,8
			c0,0.7-0.2,1.3-0.7,1.8c-0.5,0.5-1.1,0.8-1.8,0.8c0,0-24.4,0.5-29.4,0.6c-2.4,0.1-6.8,0-11.6,0c-3.4,0-6.8-0.1-9.7-0.1h-0.2
			c-2.6,0-4.5,0-5.5,0.1C287.7,260.8,283.5,260.9,277.5,260.9z M273.1,255.8c1.2,0,2.7,0,4.4,0c5.9,0,10-0.1,11.9-0.2
			c1.2-0.1,3.1-0.1,5.9-0.1h0.2c2.9,0,6.4,0,9.8,0.1c4.6,0.1,9,0.1,11.4,0c4-0.1,20.6-0.4,27-0.5c0-1.6,0-3.5,0-5.7
			c0-3.4,0.1-7.2,0-10.7c-0.1-6.4,0-12.4,0-12.5c0-0.5,0-1.2,0-1.9c-1.1,0-2.2,0-2.8,0.1c0,0,0,0,0,0c-0.3,0-8.7-0.1-15.9-0.1
			c-4.2,0-7.1,0-8.7,0.1c-1.8,0.1-3.8,0.1-6,0.1c-2.2,0-4.3,0-6.2-0.1c-1.5,0-2.8,0-3.8,0l-23.6,0c-0.9,0-2.4,0.1-3.6,0.2
			c0,0.6,0,1.3,0,1.7v12.8c0,2,0,3.5,0,4.9c0,2,0,3.5,0,4.7C273.1,249.8,273.1,253.3,273.1,255.8z"/>
	</g>
	<g class="st1">
		<path class="st2" d="M242.2,223.9c-3.8,0-6.9,0-6.9,0c-1.4,0-2.5-1.1-2.5-2.5c0-3.7,0-8.2-0.1-9.5c-0.1-1.4-0.1-2.9,0-5
			c0-1.3,0-2.9,0-4.8v-12.8c0-1.3,0-4.1,0-4.1c0-1.3,1-2.4,2.3-2.5c0.2,0,5-0.4,6.8-0.3l23.1,0c1.1,0,2.4,0,3.9,0
			c1.9,0,4,0.1,6.1,0.1c2.2,0,4.1,0,5.8-0.1c1.6-0.1,4.6-0.1,8.9-0.1c7.3,0,15.8,0.1,15.8,0.1c1.2-0.1,5.4-0.1,5.4-0.1
			c0.7,0,1.3,0.3,1.8,0.7c0.5,0.5,0.7,1.1,0.7,1.8c0,0,0,3,0,4.5c0,0.1-0.1,6.1,0,12.4c0.1,3.6,0,7.4,0,10.8c0,3.5-0.1,6.5,0,8
			c0,0.7-0.2,1.3-0.7,1.8c-0.5,0.5-1.1,0.8-1.8,0.8c0,0-24.4,0.5-29.4,0.6c-2.4,0.1-6.8,0-11.6,0c-3.4,0-6.8-0.1-9.7-0.1
			c-2.8,0-4.7,0-5.7,0.1C252.4,223.8,248.3,223.9,242.2,223.9z M237.9,218.9c1.2,0,2.7,0,4.4,0c5.9,0,10-0.1,11.9-0.2
			c1.2-0.1,3.2-0.1,6.1-0.1c2.9,0,6.4,0,9.8,0.1c4.6,0.1,9.1,0.1,11.4,0c4-0.1,20.6-0.4,27-0.5c0-1.6,0-3.5,0-5.7
			c0-3.4,0.1-7.2,0-10.7c-0.1-6.4,0-12.4,0-12.5c0-0.5,0-1.2,0-2c-1.1,0-2.2,0-2.8,0.1c-0.1,0-8.6-0.1-15.9-0.1
			c-4.2,0-7.1,0-8.7,0.1c-1.8,0.1-3.8,0.1-6,0.1c-2.2,0-4.3,0-6.2-0.1c-1.5,0-2.8,0-3.8,0l-23.6,0c-0.9,0-2.4,0.1-3.6,0.2
			c0,0.6,0,1.3,0,1.7V202c0,2,0,3.5,0,4.9c0,2,0,3.5,0,4.7C237.9,212.9,237.9,216.3,237.9,218.9z"/>
	</g>
	<g class="st1">
		<path class="st2" d="M660.3,577c-3.8,0-6.9,0-6.9,0c-1.4,0-2.5-1.1-2.5-2.5c0-3.5,0-8.1-0.1-9.5c-0.1-1.4-0.1-2.9,0-5
			c0-1.3,0-2.9,0-4.8v-12.8c0-1.3,0-4.1,0-4.1c0-1.3,1-2.4,2.3-2.5c0.2,0,5-0.4,6.8-0.3l23.1,0c1.1,0,2.4,0,3.9,0
			c1.9,0,4,0.1,6.1,0.1c2.2,0,4.1,0,5.8-0.1c1.6-0.1,4.6-0.1,8.9-0.1c7.3,0,15.8,0.1,15.8,0.1c1.2-0.1,5.4-0.1,5.4-0.1
			c0.7,0,1.3,0.3,1.8,0.7c0.5,0.5,0.7,1.1,0.7,1.8c0,0,0,3,0,4.5c0,0.1-0.1,6.1,0,12.4c0.1,3.6,0,7.4,0,10.8c0,3.5-0.1,6.5,0,8
			c0,0.7-0.2,1.3-0.7,1.8c-0.5,0.5-1.1,0.8-1.8,0.8c0,0-24.4,0.5-29.4,0.6c-2.4,0.1-6.8,0-11.6,0c-3.4,0-6.8-0.1-9.7-0.1
			c-2.8,0-4.7,0-5.7,0.1C670.5,577,666.4,577,660.3,577z M655.9,572c1.2,0,2.7,0,4.4,0c5.9,0,10-0.1,11.9-0.2
			c1.2-0.1,3.2-0.1,6.1-0.1c2.9,0,6.4,0,9.8,0.1c4.6,0.1,9,0.1,11.4,0c4-0.1,20.6-0.4,27-0.5c0-1.6,0-3.5,0-5.7
			c0-3.4,0.1-7.2,0-10.7c-0.1-6.4,0-12.4,0-12.5c0-0.5,0-1.2,0-2c-1.1,0-2.2,0-2.8,0.1c-0.1,0-8.6-0.1-15.9-0.1
			c-4.2,0-7.1,0-8.7,0.1c-1.8,0.1-3.8,0.1-6,0.1c-2.2,0-4.3,0-6.2-0.1c-1.5,0-2.8,0-3.8,0l-23.6,0c-0.9,0-2.4,0.1-3.6,0.2
			c0,0.6,0,1.3,0,1.7v12.8c0,2,0,3.5,0,4.9c0,2,0,3.5,0,4.7C655.9,566,655.9,569.5,655.9,572z"/>
	</g>
	<g class="st1">
		<path class="st2" d="M625.1,540.1c-3.8,0-6.9,0-6.9,0c-1.4,0-2.5-1.1-2.5-2.5c0-3.5,0-8.1-0.1-9.5c-0.1-1.4-0.1-2.9,0-5
			c0-1.3,0-2.9,0-4.8v-12.8c0-1.3,0-4.1,0-4.1c0-1.3,1-2.4,2.3-2.5c0.2,0,4.3-0.3,6.3-0.3l0.5,0l23.1,0c1.1,0,2.4,0,3.9,0
			c1.9,0,4,0.1,6.1,0.1c2.2,0,4.1,0,5.8-0.1c1.6-0.1,4.5-0.1,8.9-0.1c7.3,0,15.8,0.1,15.8,0.1c1.2-0.1,5.4-0.1,5.4-0.1
			c0.7,0,1.3,0.3,1.8,0.7c0.5,0.5,0.7,1.1,0.7,1.8c0,0,0,3,0,4.5c0,0.1-0.1,6.1,0,12.4c0.1,3.6,0,7.4,0,10.8c0,3.5-0.1,6.5,0,8
			c0,0.7-0.2,1.3-0.7,1.8c-0.5,0.5-1.1,0.8-1.8,0.8c0,0-24.4,0.5-29.4,0.6c-2.4,0.1-6.8,0-11.6,0c-3.4,0-6.8-0.1-9.7-0.1
			c-2.8,0-4.7,0-5.7,0.1C635.2,540,631.1,540.1,625.1,540.1z M620.7,535.1c1.2,0,2.7,0,4.4,0c5.9,0,10-0.1,11.9-0.2
			c1.2-0.1,3.1-0.1,6.1-0.1c2.9,0,6.4,0,9.8,0.1c4.6,0.1,9.1,0.1,11.4,0c4-0.1,20.6-0.4,27-0.5c0-1.6,0-3.5,0-5.7
			c0-3.4,0.1-7.2,0-10.7c-0.1-6.4,0-12.4,0-12.5c0-0.5,0-1.2,0-1.9c-1.1,0-2.2,0-2.8,0.1c-0.1,0-8.6-0.1-15.9-0.1
			c-4.2,0-7.1,0-8.7,0.1c-1.8,0.1-3.8,0.1-6,0.1c-2.2,0-4.3,0-6.2-0.1c-1.5,0-2.8,0-3.8,0l-23.6,0c-0.9,0-2.4,0.1-3.6,0.2
			c0,0.6,0,1.3,0,1.7v12.8c0,2,0,3.5,0,4.9c0,2,0,3.5,0,4.7C620.7,529.1,620.7,532.6,620.7,535.1z"/>
	</g>
	<g class="st1">
		<path class="st2" d="M317.2,223.9c-3.8,0-6.9,0-6.9,0c-1.4,0-2.5-1.1-2.5-2.5c0-3.7,0-8.2-0.1-9.5c-0.1-1.4-0.1-2.9,0-5
			c0-1.3,0-2.9,0-4.8v-12.8c0-1.3,0-4.1,0-4.1c0-1.3,1-2.4,2.3-2.5c0.2,0,5-0.4,6.8-0.3l23.1,0c1.1,0,2.4,0,3.9,0
			c1.9,0,4,0.1,6.1,0.1c2.2,0,4.1,0,5.8-0.1c1.6-0.1,4.6-0.1,8.9-0.1c7.3,0,15.8,0.1,15.8,0.1c1.2-0.1,5.4-0.1,5.4-0.1
			c0.7,0,1.3,0.3,1.8,0.7c0.5,0.5,0.7,1.1,0.7,1.8c0,0,0,3,0,4.5c0,0.1-0.1,6.1,0,12.4c0.1,3.6,0,7.4,0,10.9c0,3.5-0.1,6.5,0,8
			c0,0.7-0.2,1.3-0.7,1.8c-0.5,0.5-1.1,0.8-1.8,0.8c0,0-24.4,0.5-29.4,0.6c-2.4,0.1-6.8,0-11.6,0c-3.4,0-6.8-0.1-9.7-0.1
			c-2.8,0-4.7,0-5.7,0.1C327.4,223.8,323.3,223.9,317.2,223.9z M312.9,218.9c1.2,0,2.7,0,4.4,0c5.9,0,10-0.1,11.9-0.2
			c1.2-0.1,3.2-0.1,6.1-0.1c2.9,0,6.4,0,9.8,0.1c4.6,0.1,9.1,0.1,11.4,0c4-0.1,20.6-0.4,27-0.5c0-1.6,0-3.5,0-5.7
			c0-3.4,0.1-7.2,0-10.7c-0.1-6.4,0-12.4,0-12.5c0-0.5,0-1.2,0-2c-1.1,0-2.2,0-2.8,0.1c-0.1,0-8.6-0.1-15.9-0.1
			c-4.2,0-7.1,0-8.7,0.1c-1.8,0.1-3.8,0.1-6,0.1c-2.2,0-4.3,0-6.2-0.1c-1.5,0-2.8,0-3.8,0l-23.6,0c-0.9,0-2.4,0.1-3.6,0.2
			c0,0.6,0,1.3,0,1.7V202c0,2,0,3.5,0,4.9c0,2,0,3.5,0,4.7C312.9,212.9,312.9,216.3,312.9,218.9z"/>
	</g>
	<g class="st1">
		<path class="st2" d="M478.8,355.1c-3.8,0-6.9,0-6.9,0c-1.4,0-2.5-1.1-2.5-2.5c0-3.7,0-8.2-0.1-9.5c-0.1-1.4-0.1-2.9,0-5
			c0-1.3,0-2.9,0-4.8v-12.8c0-1.3,0-4.1,0-4.1c0-1.3,1-2.4,2.3-2.5c0.2,0,5-0.4,6.8-0.3l23.1,0c1.1,0,2.4,0,3.9,0
			c1.9,0,4,0.1,6.1,0.1c2.2,0,4.1,0,5.8-0.1c1.6-0.1,4.6-0.1,8.9-0.1c7.3,0,15.8,0.1,15.8,0.1c1.2-0.1,5.4-0.1,5.4-0.1
			c0.7,0,1.3,0.3,1.8,0.7c0.5,0.5,0.7,1.1,0.7,1.8c0,0,0,3,0,4.5c0,0.1-0.1,6.1,0,12.4c0.1,3.6,0,7.4,0,10.9c0,3.5-0.1,6.5,0,8
			c0,0.7-0.2,1.3-0.7,1.8c-0.5,0.5-1.1,0.8-1.8,0.8c0,0-24.4,0.5-29.4,0.6c-2.4,0.1-6.8,0-11.6,0c-3.4,0-6.8-0.1-9.7-0.1
			c-2.8,0-4.7,0-5.7,0.1C489,355,484.9,355.1,478.8,355.1z M474.5,350.1c1.2,0,2.7,0,4.4,0c5.9,0,10-0.1,11.9-0.2
			c1.2-0.1,3.2-0.1,6.1-0.1c2.9,0,6.4,0,9.8,0.1c4.6,0.1,9.1,0.1,11.4,0c4-0.1,20.6-0.4,27-0.5c0-1.6,0-3.5,0-5.7
			c0-3.4,0.1-7.2,0-10.7c-0.1-6.4,0-12.4,0-12.5c0-0.5,0-1.2,0-2c-1.1,0-2.2,0-2.8,0.1c-0.1,0-8.6-0.1-15.9-0.1
			c-4.2,0-7.1,0-8.7,0.1c-1.8,0.1-3.8,0.1-6,0.1c-2.2,0-4.3,0-6.2-0.1c-1.5,0-2.8,0-3.8,0l-23.6,0c-0.9,0-2.4,0.1-3.6,0.2
			c0,0.6,0,1.3,0,1.7v12.8c0,2,0,3.5,0,4.9c0,2,0,3.5,0,4.7C474.5,344.1,474.5,347.5,474.5,350.1z"/>
	</g>
	<g class="st1">
		<path class="st2" d="M178.1,409.9c-3.8,0-6.9,0-6.9,0c-1.4,0-2.5-1.1-2.5-2.5c0-3.7,0-8.2-0.1-9.5c-0.1-1.4-0.1-2.9,0-5
			c0-1.3,0-2.9,0-4.8v-12.8c0-1.3,0-4.1,0-4.1c0-1.3,1-2.4,2.3-2.5c0.2,0,5-0.4,6.8-0.3l23.1,0c1.1,0,2.4,0,3.9,0
			c1.9,0,4,0.1,6.1,0.1c2.2,0,4.1,0,5.8-0.1c1.6-0.1,4.6-0.1,8.9-0.1c7.3,0,15.8,0.1,15.8,0.1c1.2-0.1,5.4-0.1,5.4-0.1
			c0.7,0,1.3,0.3,1.8,0.7c0.5,0.5,0.7,1.1,0.7,1.8c0,0,0,3,0,4.5c0,0.1-0.1,6.1,0,12.4c0.1,3.6,0,7.4,0,10.9c0,3.5-0.1,6.5,0,8
			c0,0.7-0.2,1.3-0.7,1.8c-0.5,0.5-1.1,0.8-1.8,0.8c0,0-24.4,0.5-29.4,0.6c-2.4,0.1-6.8,0-11.6,0c-3.4,0-6.8-0.1-9.7-0.1
			c-2.8,0-4.7,0-5.7,0.1C188.3,409.8,184.2,409.9,178.1,409.9z M173.7,404.9c1.2,0,2.7,0,4.4,0c5.9,0,10-0.1,11.9-0.2
			c1.2-0.1,3.2-0.1,6.1-0.1c2.9,0,6.4,0,9.8,0.1c4.6,0.1,9.1,0.1,11.4,0c4-0.1,20.6-0.4,27-0.5c0-1.6,0-3.5,0-5.7
			c0-3.4,0.1-7.2,0-10.7c-0.1-6.4,0-12.4,0-12.5c0-0.5,0-1.2,0-2c-1.1,0-2.2,0-2.8,0.1c-0.1,0-8.6-0.1-15.9-0.1
			c-4.2,0-7.1,0-8.7,0.1c-1.8,0.1-3.8,0.1-6,0.1c-2.2,0-4.3,0-6.2-0.1c-1.5,0-2.8,0-3.8,0l-23.6,0c-0.9,0-2.4,0.1-3.6,0.2
			c0,0.6,0,1.3,0,1.7V388c0,2,0,3.5,0,4.9c0,2,0,3.5,0,4.7C173.7,398.9,173.7,402.3,173.7,404.9z"/>
	</g>
	<g class="st1">
		<path class="st2" d="M517.7,62.2c0-1.1,0-2.3,0-3.4c-1.5-0.7-3.6-1.5-5-2.1c0,1.9,0,3.8,0,5.5c0,2.2,0,4.2,0,5.7
			c-6.4,0.1-22.9,0.4-27,0.5c-2.3,0.1-6.7,0-11.4,0c-3.4,0-6.9-0.1-9.8-0.1c-2.9,0-4.9,0-6.1,0.1c-1.9,0.1-6,0.2-11.9,0.2
			c-1.7,0-3.2,0-4.4,0c0-2.6,0-6-0.1-7.3c-0.1-1.2,0-2.7,0-4.7c0-1.3,0-2.9,0-4.9l0.1-9.8c-2.2-0.1-3.5,0.1-5.2,0.2l0,9.6
			c0,1.9,0,3.5,0,4.8c0,2.1,0,3.6,0,5c0.1,1.4,0.1,5.8,0.1,9.5c0,1.4,1.1,2.5,2.5,2.5c0,0,3.1,0,6.9,0c6.1,0,10.2-0.1,12.2-0.2
			c1-0.1,3-0.1,5.7-0.1c2.9,0,6.4,0,9.7,0.1c4.7,0.1,9.2,0.1,11.6,0c5-0.1,29.4-0.6,29.4-0.6c0.7,0,1.3-0.3,1.8-0.8
			c0.5-0.5,0.7-1.2,0.7-1.8C517.6,68.7,517.7,65.7,517.7,62.2z"/>
	</g>
	<g class="st1">
		<path class="st2" d="M143.7,274.1c-0.1-6.3,0-12.3,0-12.4c0-1.5,0-4.5,0-4.5c0-0.7-0.3-1.3-0.7-1.8c-0.5-0.5-1.1-0.7-1.8-0.7
			c0,0-4.1,0.1-5.4,0.1c0,0-9.5,0.1-17.3,0.1c0,0-3,4.3-3.4,5.2c8.4-0.1,20.7-0.3,20.8-0.3c0,0,0,0,0,0c0.6,0,1.7,0,2.8-0.1
			c0,0.7,0,1.4,0,1.9c0,0.1-0.1,6.1,0,12.5c0.1,3.5,0,7.4,0,10.7c0,2.2,0,4.2,0,5.7c-6.4,0.1-22.9,0.4-27,0.5
			c-1.8,0-6.6-0.2-9.9-0.3c-0.5,1.5-0.9,3.1-1.2,5.1c4.4,0,9,0.2,11.3,0.2c5-0.1,29.4-0.6,29.4-0.6c0.7,0,1.3-0.3,1.8-0.8
			c0.5-0.5,0.7-1.2,0.7-1.8c-0.1-1.5-0.1-4.5,0-8C143.7,281.5,143.7,277.7,143.7,274.1z"/>
	</g>
	<g>
		<path class="st3" d="M350.4,362.6c0,0-42.6-14.6-72.3,20c0,0-20.3,19.7-16,48.3c0,0,9.3,51,93.6,67
			C355.7,497.8,339.3,416.2,350.4,362.6z"/>
	</g>
	<g>
		<path class="st4" d="M337.5,708.1c6.1-6.4,42.3-6.5,54.6-17.7V564.2h15.1v126.3c2.4,2.4,6.7,5,14,6.9c16.2,4.2,39,7,40.4,20
			c0,0-7-0.5-61.5-0.4c-56.8,0.1-64.7-2.3-64.7-2.3S334.2,711.6,337.5,708.1z"/>
	</g>
	<g>
		<path class="st5" d="M560.2,670.8c0,0-4.3,17.1,8,27.2c12.3,10.1,24.2,8.6,24.2,8.6s8.8,2.3,3.3,7.3c-5.5,5-17.4,3.9-27.4,0.9
			c-10-3-13.6,0.2-17.3,0.9c-3.7,0.7-16.8,0.1-14.9-14.8c1.9-14.9,6.5-22.9,5-30.1H560.2z"/>
	</g>
	<g>
		<path class="st5" d="M645.5,636c0,0,5.1,16.9,20.8,19.3c15.7,2.3,25.2-5,25.2-5s8.7-2.5,6.6,4.6c-2.2,7.1-12.9,12.3-23.1,14.9
			c-10.1,2.5-11.6,7.1-14.4,9.6s-14.3,8.7-20.4-5.1c-6-13.8-6.2-23-11.2-28.4L645.5,636z"/>
	</g>
	<g>
		<path class="st4" d="M572.3,680c-0.3,1.4-22.2,5.8-41.2,0c0,0-3.7-47.1-4.2-80.6c0-3.6-0.7-21.3-1-26.9l-1.4-14.8
			c-16.2-1.3-37.5-2.3-37.5-2.3l-59.6-0.1c0,0,55.6-56.6,97.3-54.2s62.6-3.4,62.5,70.4C587.2,596.8,581.6,631.2,572.3,680z"/>
	</g>
	<g>
		<path class="st6" d="M460.2,293.1c0,0-24.5,13.9-42.5-11.3c0,0-47,6.6-62,40.8c-15,34.2-17.8,115.3,0.9,178.6
			c0,0-1.4-7.2,121.7-39.5c0,0-3.4-11.8-5.3-27.5c-2.8-22.8,0-54.5,0-54.5s19.7,37.4,48.4,46.8l78.6-0.5l6.3-18.6
			c0,0-62.6-16.4-84.9-52.2C495.7,313.9,485.6,296.2,460.2,293.1z"/>
	</g>
	<g>
		<path class="st7" d="M655.3,635.1c0,0-21.3-66.4-52.1-127.2c-31.5-62.2-50.3-55.9-134.3-44.7c0,0-72.3,9.6-112.2,36.2
			c0,0,9.8,55.3,44.2,54.7c0,0,41.1,6.2,74-11.6c26-14.1,66.8-38.7,86.7-36.3c32.9,3.8,23.7,95.1,23.7,95.1
			c6.8,15,19.6,37.7,33.6,53.1C618.9,654.3,641.7,647.5,655.3,635.1z"/>
	</g>
	<g>
		<g>
			<rect x="463.1" y="426" class="st4" width="286.5" height="19.8"/>
		</g>
		<g>
			<rect x="703.5" y="444" class="st4" width="16.9" height="274.4"/>
		</g>
		<g>
			<rect x="495.4" y="444" class="st4" width="16.9" height="274.4"/>
		</g>
	</g>
	<g>
		<path class="st5" d="M543.1,396.1c0,0,26.2,4.3,38.1,12.2c11.9,8,19.6,9.4,11.9,10.1c-7.7,0.7-50,0-50,0S538.6,406.2,543.1,396.1z
			"/>
		<path class="st7" d="M679.6,419.1l-3.2,6.9H557.2l2.1-6.9l33.9-76.5c1-3.7,5-6.9,8.7-6.9h105c3.7,0,8.2,2.7,6.7,6.9L679.6,419.1z"
			/>
		<rect x="488.6" y="418.4" class="st7" width="74.8" height="7.6"/>
	</g>
	<g>
		<path class="st8" d="M487,555.5c0,0-0.4,12.4-12.9,16H341.1c0,0-33.3,3.5-48.8-31.9c0,0-28.4-69.2-30.2-108.7
			c0,0,15.1,27.5,39.9,33.7s51.9,19.1,63.4,52.8c11.5,33.7,20.8,36.4,41.2,36.8C427.1,554.6,487,555.5,487,555.5z"/>
	</g>
	<g>
		<path class="st9" d="M543.1,396.1c0,0-30.1-1.1-47.8-1.6c-12.3-0.3-46.6,0-46.6,0c-12.2-8.4-31-28.1-36.7-47.3
			c-12.4-41.8-23.7-48.1-39.5-43.4c-11.7,3.5-29,27.3-15.9,77c14.4,54.5,68,67.7,101.2,63.1c27.1-3.7,86.7-25.5,86.7-25.5
			L543.1,396.1z"/>
	</g>
	<g>
		<path class="st2" d="M631.9,377.4c-3.3,5.7-1.5,14.2,4.7,15.4c8.2,1.7,13.6-1.6,17-8.1c3.4-6.5,0.4-11.1-5.1-14
			C642.9,367.8,635.6,371.1,631.9,377.4z"/>
	</g>
	<g>
		<g>
			<path class="st8" d="M739.5,412.4c0,0,21.5,1.9,22.8-12.1c1.1-11.4-12.1-20.3-24.1-8.8c0,0-1.6,1.6,0.8,3.7
				c2.3,2.1,5.1-2.2,8.5-3.5c3.4-1.3,10.2,2.8,9,9c-1.2,6.2-11.7,5.9-16.2,6.5C738.1,407.5,736.6,411.2,739.5,412.4z"/>
		</g>
		<g>
			<path class="st8" d="M746,383.1h-42.6c0,0-2.4,37.3,10.4,42.9h22.8C736.6,426,747.2,420.1,746,383.1z"/>
		</g>
	</g>
	<g>
		<g>
			<path class="st9" d="M215.3,510.8c0,0,5.6-37.9,8.2-46.2c3.3-10.8,4.9-26.8-4.1-36.2c-9.1-9.4-10.4-31.6-10.4-35
				c0-3.4-3.4-54.3-40.7-46.8c0,0-15.5,3.8-7.9,30.9c0,0,7.9,16.2-2.1,26.4c-10,10.2-18.7,33.6,0,56.2
				c18.7,22.6,13.4,30.9,10.4,39.6c-13.6,39.6,15.3,76,18.5,85.7c3.1,9.7,6.9,25.6,3.8,34.8l11,0.2L215.3,510.8z"/>
		</g>
		<g>
			<path class="st4" d="M195.9,621.9c-0.1,0-0.2,0-0.3,0c-0.9-0.2-1.5-1.1-1.3-2c4.2-20.4-3.2-56.8-3.2-57.2
				c-4.1-15.5-5.2-35.3,1.5-85.8c3.9-29.1,1-52.1-2-66.2c-3.3-15.4-7.6-24-7.7-24.1c-0.4-0.8-0.1-1.8,0.7-2.2
				c0.8-0.4,1.8-0.1,2.2,0.7c0.2,0.4,4.5,9,7.9,24.7c3.1,14.5,6.1,37.9,2.1,67.5c-6.6,49.8-5.4,69.8-1.5,84.6
				c0.3,1.6,7.6,37.5,3.3,58.6C197.4,621.4,196.7,621.9,195.9,621.9z"/>
		</g>
		<g>
			<path class="st9" d="M176.9,621.2c0,0,0-8.9-18.3-17.4c0,0-13.6-4.2-18.3-22.1c-4.7-17.8-17.8-13.2-26.3-8
				c-8.5,5.2-27.7,0-27.7-26.8c0,0,5.7-14.1-6.6-21.6c-12.3-7.5-17-34.4,9.3-34.1c26.3,0.3,51.1,13.3,76.6,51
				c35.4,52.4,21.6,78.9,21.6,78.9H176.9z"/>
		</g>
		<g>
			<path class="st4" d="M183.9,622.9c-0.2,0-0.3,0-0.5-0.1c-0.9-0.3-1.3-1.2-1.1-2.1c2.3-8.4,0.1-17.5,0.1-17.5
				c-0.1-0.1-0.1-0.2-0.1-0.3c-14.2-53.6-84.2-89.2-85-89.6c-0.8-0.4-1.2-1.4-0.7-2.2c0.4-0.8,1.4-1.1,2.2-0.7
				c0.7,0.4,72,36.6,86.6,91.6c0.6,1.3,2.5,10.9,0,19.9C185.3,622.5,184.6,622.9,183.9,622.9z"/>
		</g>
		<g>
			<path class="st9" d="M215.5,620.5c0,0,19.2-10.9,15.5-32.8c-3.8-21.9,15.8-26.8,20.4-27.5c4.5-0.8,33.9-12.8,29.4-56.9
				c0,0-1.5-28.3,3.8-38.5c5.3-10.2,18.5-40.7,0-50.2c-18.5-9.4-31.3,7.5-38.1,24.9c0,0-5.3,20-9.8,24.9
				c-4.5,4.9-37.3,33.6-34.7,93.2l6.4,63H215.5z"/>
		</g>
		<g>
			<path class="st4" d="M212.5,622.1c-0.9,0-1.6-0.7-1.7-1.6c-1.9-50.7,20.1-116.9,32.7-136c12.2-18.5,20.9-36.9,21-37
				c0.4-0.8,1.4-1.2,2.2-0.8c0.8,0.4,1.2,1.4,0.8,2.2c-0.1,0.2-8.9,18.7-21.2,37.5c-12.4,18.8-34,84-32.2,134
				C214.1,621.3,213.4,622.1,212.5,622.1C212.5,622.1,212.5,622.1,212.5,622.1z"/>
		</g>
		<g>
			<path class="st4" d="M245.3,625.6c1-3.8,2-5.3-5.3-5.3h-90.8c-7.5,0-5.6,2.6-5.3,5.3l18.8,85.6c1.2,5.9,0.6,5.4,5.3,5.3h53.2
				c5,0,4.4,0.8,5.3-5.3L245.3,625.6z"/>
		</g>
	</g>
	<g>
		<path class="st7" d="M505.1,234.3c12.9-7.9,28.8-9.1,20.2-39.1c-5.2-17.9-22.2-19.6-32.1-18.6c-7,0.7-25.6,10.9-25.6,10.9
			c-21.3-7.8-35.8,7.6-34.1,30.6c1.2,17.2,4.4,24.5,15.2,26.9C448.7,245.2,490,243.5,505.1,234.3z"/>
	</g>
	<g>
		<path class="st5" d="M502.9,210.8c0,0,10.5,2.5-0.6,32.9c-11.3,30.9-26.9,38.1-36.3,25.7c-1.7-2.2-6.5,8.5-5.5,24.5
			c0.3,5-2.9,9.7-7.7,11.1c-9.6,2.9-25.1,2.6-35.1-23c0,0,5.5-4.7,14.1-21.8c4.6-9,15.4-25.9,11-32c-9.2-12.7,11.2-23.5,12.6-8.6
			c0,0,2.4,2.7,8.7-3.1C470.6,210.5,490,203.3,502.9,210.8z"/>
	</g>
	<g>
		<path class="st5" d="M502.8,235.4c0,0,2.2,12.6,2.4,24.4c0,0-4.4,1.9-12.4-3.7C492.7,256,496.6,241.1,502.8,235.4z"/>
	</g>
	<path class="st7" d="M465.9,214.8c0,0-0.1,30.7,11.4,37c11.5,6.3,18,7,18,7s-5.4,22.5-12.3,23.8c-9.9,1.7-35.6-5.9-31.8-29
		c3.8-23.1,4.3-34.1,4.3-34.1S455.3,209.3,465.9,214.8z"/>
	<g>
		<g>
			<g>
				<path class="st4" d="M902,718.1c0.4-0.1,0.2-0.5-1-0.4l-0.9,0.6L902,718.1z"/>
			</g>
		</g>
		<g>
			<g>
				<path class="st4" d="M893.8,717.1c-1.4,0.3-3.1,0.7-2.1,1.3c1.4-0.5,1.8-0.3,3.3-1c1.2-0.1,2.1,0.2,1.9,0.4
					c0.4-0.1,1.9,0.1,2.5-0.2c-1.6-0.4-3.6-0.5-5.7-0.1C893.3,717.3,893.7,717.2,893.8,717.1z"/>
			</g>
		</g>
		<g>
			<g>
				<path class="st4" d="M775.1,716.2l0.8,0.1C775.7,716.2,775.4,716.2,775.1,716.2z"/>
			</g>
		</g>
		<g>
			<g>
				<path class="st4" d="M701.6,715.9c0.6,0,0.8-0.1,0.8-0.1C701.9,715.8,701.4,715.9,701.6,715.9z"/>
			</g>
		</g>
		<g>
			<g>
				<path class="st4" d="M689,715.3c0.3,0,0.5,0,0.7,0C689.5,715.3,689.2,715.2,689,715.3z"/>
			</g>
		</g>
		<g>
			<g>
				<path class="st4" d="M775.1,716.2l-2-0.2C773,716.2,774.2,716.2,775.1,716.2z"/>
			</g>
		</g>
		<g>
			<g>
				<path class="st4" d="M877.5,718.4c0.4,0,0.8-0.1,1.1-0.1C878.2,718.3,877.9,718.3,877.5,718.4
					C877.5,718.4,877.5,718.4,877.5,718.4z"/>
			</g>
		</g>
		<g>
			<g>
				<path class="st4" d="M807.5,715.8l0.6,0c0.2-0.1,0.3-0.1,0.5-0.2L807.5,715.8z"/>
			</g>
		</g>
		<g>
			<g>
				<path class="st4" d="M832.4,715.7c-0.6,0-0.8,0.5-1,0.7c0.3-0.2,0.7-0.3,1.2-0.3C832.7,715.9,832.6,715.8,832.4,715.7z"/>
			</g>
		</g>
		<g>
			<g>
				<path class="st4" d="M871.9,716.5l0.7-0.1C872.4,716.5,872.1,716.5,871.9,716.5z"/>
			</g>
		</g>
		<g>
			<g>
				<path class="st4" d="M789.7,715.7c0-0.1-0.1-0.1-0.2-0.2C789.5,715.5,789.6,715.6,789.7,715.7z"/>
			</g>
		</g>
		<g>
			<g>
				<path class="st4" d="M666,714.7c0,0,0.1,0,0.1,0C666.7,714.6,666.4,714.6,666,714.7z"/>
			</g>
		</g>
		<g>
			<g>
				<path class="st4" d="M455,715c2.4,0.4-3.9,0.5-0.3,1C454.4,715.9,458,715.3,455,715z"/>
			</g>
		</g>
		<g>
			<g>
				<path class="st4" d="M876.8,718.4c-0.3,0-0.7,0-1,0C876.3,718.4,876.6,718.4,876.8,718.4z"/>
			</g>
		</g>
		<g>
			<g>
				<path class="st4" d="M454.7,716C454.7,716,454.7,716,454.7,716l0.4,0C455,716.1,454.9,716.1,454.7,716z"/>
			</g>
		</g>
		<g>
			<g>
				<path class="st4" d="M613.1,715c0.1,0.1,0.3,0.1,0.5,0.2C613.6,715.1,613.5,715.1,613.1,715z"/>
			</g>
		</g>
		<g>
			<g>
				<path class="st4" d="M652.5,715.6l-1-0.1C651.9,715.6,652.2,715.6,652.5,715.6z"/>
			</g>
		</g>
		<g>
			<g>
				<path class="st4" d="M592.6,715.6c-0.5,0-0.7-0.1-1.4,0c0.1,0,0.1,0,0.2,0.1C591.6,715.6,592,715.6,592.6,715.6z"/>
			</g>
		</g>
		<g>
			<g>
				<path class="st4" d="M571.3,715.6c0.1,0,0.3,0.1,0.4,0.1c0.2,0,0.5,0,0.7,0L571.3,715.6z"/>
			</g>
		</g>
		<g>
			<g>
				<path class="st4" d="M158.5,719c-0.5-0.1-0.8-0.3-1-0.4C157.9,718.9,154.7,719,158.5,719z"/>
			</g>
		</g>
		<g>
			<g>
				<path class="st4" d="M877.4,718.2c-0.1,0.1-0.3,0.2-0.6,0.2c0.2,0,0.5,0,0.7,0C877.6,718.3,877.6,718.2,877.4,718.2z"/>
			</g>
		</g>
		<g>
			<g>
				<path class="st4" d="M591.7,719.4l-3.4-0.1C589.3,719.4,590.5,719.4,591.7,719.4z"/>
			</g>
		</g>
		<g>
			<g>
				<path class="st4" d="M311.5,718.9l-0.8,0.1C311,719,311.3,719,311.5,718.9z"/>
			</g>
		</g>
		<g>
			<g>
				<path class="st4" d="M578.3,719.4c-0.6-0.2-1.2-0.3-1.9-0.3c-0.1,0-0.3,0.1-0.4,0.1L578.3,719.4z"/>
			</g>
		</g>
		<g>
			<g>
				<path class="st4" d="M157.5,718.6C157.6,718.6,157.6,718.6,157.5,718.6C157.6,718.6,157.6,718.6,157.5,718.6z"/>
			</g>
		</g>
		<g>
			<g>
				<path class="st4" d="M146.6,719.1c2.5-0.5,7.5,0,10.5-0.6c0.2,0.1,0.3,0.1,0.4,0.2c-0.5-0.3-0.6-0.6-0.5-0.9
					c1.4,0,2.7-0.4,3.2,0c-0.9,0-1,0.2-1.4,0.3l1.5-0.2c1.4,0.6-2.1,0.2-2.1,0.6c3-0.2,6.4-0.7,8.7-0.5c0.5,0.6-5.3,0.2-2.3,0.7
					l-3.5-0.2c2.7,0.9-2.1-0.1,0.3,0.9c4.6,0.2,5.2-0.3,9.8-0.1c1-0.3-0.3-0.5,0.7-0.8c6.5-0.6,5.1,1.4,10,0.7
					c1.2-0.4,1.7-1.1,5.2-0.7L186,719c4.5,0.1,2.5-0.9,7.2-0.5c-0.8,0.3-3.5,0.2-2.8,0.3c3,0.5,2.1-0.4,4.5-0.4l0.5,0.6
					c4.8-0.1,10-0.5,15.3-0.6c-0.3,0.2-1.2,0.4,0,0.5c6.6-0.3,14.2,0.1,20.6,0.4l2.4-0.5c0.6,0,1.1,0.2,0.4,0.3
					c2.5,0.2,0.1-0.3,1.3-0.5c1.4,0,1.9,0.3,1,0.4c4.4-0.4,12.6-0.9,17.2-0.4l-0.9,0.1c3.6,0.2,4.1-1,7.4-0.6l-0.6,0.1
					c7.8,0.2,16.5-0.2,22.5,0.5c1.1-0.7,7.8,0.3,8.3-0.7c4.5,0.5,3.2,0.7,9.5,1c1.7,0,2.5-0.6,4.6-0.7l0.1,0.5l2.8-0.5l1.5,0.6
					l2-0.1c-0.8,0-1.7-0.2-1.5-0.4c3.1-0.2,7.4,0.4,7.5,0.6l7.2-0.4c-0.1,0.2-0.8,0.2-1.6,0.3c2.7-0.3,0.2,0.6,3.5,0.2
					c-0.5-0.1,0.3-0.3,0.3-0.4c1.8,0.3,5.8,0.3,8.7,0.2l-0.6,0.4c5.4,0.1,11.3-0.2,17.3-0.2c-2.2-0.2-1.7-0.8,0.1-0.9l0.7,0.6
					c1.1-0.3-1.8-0.2,0.5-0.6c2.2,0.1,1.5,0.6,0.2,0.8l2.7-0.2c0.2,0.2-0.5,0.3-0.6,0.5c1.1-0.3,4.7,0.6,6.3,0l0.2,0.2
					c6,0,8.7-0.2,13.6-0.2c0.1-0.5,2-0.4,3.5-0.8c3.6,0.2,7.6,0.5,11.9,0.5c3-0.2,0.9-0.4,2.3-0.7c0.2,0.4,4.6,0.4,2.3,0.7
					c5.2-0.1,6.6-0.1,13.2-0.4c-0.7-0.2-1.5-0.3-1.1-0.4c1.2-0.1,2.7,0.2,2.5,0.4l-0.3,0c7.4-0.7,17,1.3,22.9,0.4l-0.3,0l6.1-0.5
					c2.8,0.1-1.7,0.3,0.4,0.6c6.6-0.7,10.4,0.1,15.8-0.4c4.2,1.3,14.9-0.1,20.5,0.7l-0.3-0.3c1.5-0.3,1.8,0.2,2.8,0.2
					c-0.2-0.2-1.6-0.3-0.7-0.4c12.4-0.4,25.6,0.4,38.3,0.7c4.6,0.1,2.6-1.6,8.5-0.8l-1.7,0.6c9.4-0.7,19.2,0,28.4-0.5
					c-0.5,0.1-0.6,0.3-1.5,0.3c1.9,0.4,7.2,0,7.2-0.3c1.4,0,0.3,0.3,1.2,0.5c1.9,0.2,4.9-0.5,5.9-0.1c0.1,0-0.2,0.1-0.5,0.1
					c1.6-0.1,5.4,0,4.3-0.4c3.4,0.2,6.6-0.2,9.3,0.1c1.8-0.5,5.9,0.3,6.5-0.5c-0.2,0.8,6,0.6,8.2,0.3c-0.7,0.2,1.9,0.2,1,0.6
					c2.5,0,4.8-0.2,4.3-0.5c4.6,0.9,9.2-0.7,11.8,0.4c7.4-0.4,14.2-0.7,20.9-0.9c-0.2,0.8-7.3,0.1-7.1,0.9c6.3-0.3,9.9-1,16.2-0.8
					c1.6,0.1-0.9,0.3-1.5,0.5c6.3-0.3,12.2,0.1,17.8-0.3c0,0.1-0.6,0.1-1.2,0.2c1.1,0,2.6,0.1,2.4-0.2l-1.1,0.1
					c-1.8-0.5,4.4-1.1,4.6-1.3c-1.9,1,5.5,0.2,2.6,1.5c0.7-0.1,1.6-0.2,1.5-0.5c1.1,0.1,1.4,0.2,0.3,0.5c4-0.2,2.5-0.6,6.1-0.5
					c0,0.2-0.7,0.2-1.1,0.4c1.8-0.3,3.6-0.7,6.7-0.5c-0.2,0.1,0.1,0.2-0.4,0.2c5-0.1,8.7-0.9,14.2-0.5c-1.7,0.7,1.9,0.2,2.2,0.9
					l3.1-0.2l-1.2-0.3c2.7,0,5.1-0.4,7.4-0.2l-2,0.3l5-0.1l-2.8-0.2c2.7-0.3-0.3-0.8,3.3-0.6c-0.7,0.1,2.7,0,4.1,0.4c0,0,0,0,0,0
					c1.3-0.2,2.7-0.4,4.7-0.3c0.5,0.2-0.4,0.7-0.1,0.8c1.3-0.5,6.3-0.1,8-0.7c-0.6,0.1-0.6,0.5-0.4,0.5l1.1-0.4
					c1.2,0.1,1.4,0.2,1.2,0.5c3.7,0.1-1.2-0.8,3.3-0.5c-0.3,0-0.2,0.1-0.9,0.2c4.5,0.2,8.6-0.3,12.7-0.1c1.2,0.6-3.6,0.2-2.2,0.7
					c5.9-0.1,12.2-0.8,18-0.6l-1.1-0.1c0.8-0.9,4.3,0.4,7.2,0c-0.7,0.1-0.9,0.5-0.7,0.4c3.9,0.1,8-0.2,13.9-0.5l-0.7,0.2
					c2.3,0.2,6.1,0.1,8.6,0.2c0.7-0.2,2.2-0.2,1.3-0.5c7.7,1.3,14.7-0.7,21.5,0.4c-0.8,0-1.9,0.2-1.3,0.2l5.8-0.2
					c-0.5-0.4-0.8-0.2-2-0.5c0.7-0.2,2.4-0.4,3.8-0.4c-2.6,0.3,0,0.6,1.2,0.8c-0.2-0.1,0.2-0.3,0.1-0.4c3,0.7,0.5-0.8,4.7-0.3
					l-0.2,0.2c1.6-0.1,3-0.4,4.7-0.3c0.7,0.5-1.7,0.2-1.8,0.6c2.4,0,4.6-0.9,6.8-0.4c-1,0.1-2.4,0.1-3.4,0.3
					c2.3,0.5,2.6,0.4,4.3,0.5l-0.2,0l4,0.2l-1-0.1c2.9-1.2,6-0.2,9.9-1c-3.9,0.7-0.6,0.4-0.9,0.9c1,0.1,2.5,0.3,2.1,0.4
					c1.9-0.4,3.1,0.3,5.8-0.3c0.1,0.2,2,0,1.6,0.4c2.4-0.1-0.6-0.3-0.4-0.5c3.8-0.6,8.8,0.7,14.2-0.1c4.7-0.3,5.5-0.9,9.8-1.2
					c1.5,0.3-1.2,0.6-1.2,0.6c2.4,0.2,4.1,0.2,6.3,0c-0.4,0.1,0,0.3,0.7,0.5c1.8,0,1.2-0.6,3.5-0.4c-0.4,0.2-0.9,0.5-1.8,0.7
					c2.1-0.2,4.2-0.5,6.3-0.6c0.6,0.3-1.3,0.4-2.1,0.6c2.4-0.1,6.3-0.3,7.1-0.7l-1.2-0.1c0.3,0.1-0.1,0.4-0.6,0.4
					c-2.1,0.4-3-0.2-3.1-0.3l1.5-0.1c-1.6-1-6.2,0.2-9.3,0.1l1.3-0.7l-3.2,0.6c-0.7-0.2-1.1-0.6,0.4-0.7c-2.2-0.3-2,0.3-3.9-0.1
					c-0.2-0.1-0.1-0.1,0.1-0.1l-2.2,0.2c0.4-0.1-0.4-0.5,1-0.4c-3.9-0.4-6.3,0.5-7.8,0l0.3,0c-5.4,0.2-0.5,0.5-4.6,1.1l-2.7-1.3
					l-0.5,0.5c-0.6,0-1.7-0.1-1.5-0.3c-2.1,0.4,0.4,0.2-0.9,0.6c-2.7-0.5-7.4,0.2-8-0.6c-1,0.4,2.6,0.3-0.3,0.6
					c-0.8-0.9-3.3,0.2-5.8-0.3c0.8-0.5,3.1-0.2,0.6-0.6c-1.5,0.8-4.8-0.2-6.9,0c-0.1,0.6-4.5,0.3-8,0.5c0.2-0.2-6.6-0.3-9.8-0.6
					l0.1-0.1c-0.6,0.6-4,0.5-6.4,0.6c0.1-0.4,0.5-0.5,1.9-0.7l-2.3,0c-0.5,0.2-1.3,0.3-2.7,0.4l0.6-0.5c-3,0-6.1,0.5-10.1,0.2
					c-0.2,0.4,3.1,1.2-1,1.5c-0.2-0.2-0.3-0.6,0.8-0.7c-0.4,0-1.3,0.2-2,0.1l1.7-0.4c-1.8-0.2-0.9,0.3-2.4,0.3
					c0-0.3-1.1-0.2-0.9-0.5c0.4,0,1.2,0.1,1.8,0c-1.6-0.1-3.6-0.3-4.2-0.5c0.1,0.2,0,0.4-1.2,0.5c-3,0-1-0.4-2.8-0.6
					c-0.7,0.2-2.7,0-2.7,0.5c-0.9,0-1.1-0.2-1.4-0.4c-1.6,0.2-7.4,0.1-5.6,0.6l0.4,0c-0.1,0-0.2,0-0.3,0c-5.2,0.5-10.7-0.3-15.9-0.1
					l0-0.2c-3.1,0.2-6.8,0.1-9,0.5c-0.9,0-2.1-0.3-1.7-0.5c-2.3,0.1-2.6,0.3-6,0c2.4-0.3-0.8-0.3,2.4-0.2c-3-0.1-3.7-0.4-7,0
					c1.1-0.4-2.3-0.5-3.7-0.4l2.1,0.3c-1.6,0.1-3,0-4.5,0l0.8-0.6c-6.2-0.7-11.2,1.2-16,0c-1.6,0.4,3.4,0.3,1.9,0.7
					c-2.9-0.1-5.8-0.9-6.7-0.9c-3.9-0.3-3.7,0.8-7.8,0.6c0.5,0.2,1,0.7-2,0.9c-2.9-0.1-3.5-0.8-1.7-1c0.7,0,1,0,1,0.1
					c0.9-0.1,2.1-0.2,1-0.4l-0.4,0.2c-1.4-0.2-5.4-0.2-4.4-0.5c-2.2,0.2-0.9,0.3,0.7,0.4c-3.7-0.3-5.7,0-9.5-0.2
					c0.6,0.1,1.2,0.3,0.6,0.3c-5.5-0.2-2.4,0.4-6.2,0.5c-2.1-0.3,0.8-0.7-3-0.5c-2.3-0.2-0.5-0.5,0.4-0.7c-3.4,0.4-6.4-0.3-8.4-0.3
					l1.8-0.2c-1.1,0.1-2,0.1-2.9,0.1l1,0.4c-1.1-0.1-2-0.1-1.9-0.2c-1.1,0.3,0.8,0.7-1.3,1c-1.4-0.2-4.3,0.2-4.8-0.3
					c4.5,0.2-0.5-0.5,3.3-0.6c-0.7,0.1-1.6,0.1-2.7,0c-0.2-0.1,0.2-0.1,0.4-0.1c-4.3-0.5-2,0.6-6.4,0.6c0.6-0.3-1-0.6-1.8-0.5
					c1.8,0,0.9,0.5-0.8,0.7c-2.8-0.2-3.1,0.2-4.6,0.1l1.7,0.1c-0.6,0.3-2,0.3-4,0.4c-0.2-0.2,1.8-0.2,1.1-0.3c-2.2,0.5-5-0.5-8-0.2
					c-1.4-0.2-0.1-0.6-1.4-0.7c-3.4,0.4-3.7-0.4-7.3-0.1c1,0.4,1.2,0.3-1.3,0.7l5.9-0.3l-3.8,0.6c1.8,0,3.8-0.3,4.9-0.2
					c-1.8,0.3-1.6,0.2-0.8,0.6c-2.5-0.6-4.9,0.4-7.7-0.1l0.1-1c-4.3-0.4-7.6,0.5-13.1,0.3l1.8,0.2c-0.7,0.4-3.4,0.1-5.2,0.2
					c0.2-0.3-1-0.5-1.7-0.7c0.1,0.2-4.1,0-4.6,0.6l-2.5-0.4c-4.5-0.2-5.1,1-9.4,0.8c1.3-0.4-0.7-0.6,2.2-0.9c-1.4,0-2.7-0.1-2.7,0.2
					c-0.8-0.2-4,0.5-5.3,0.1c-0.6,0.1-0.8,0.5-2.4,0.5c-0.2-0.1,0-0.2,0-0.2c0,0.2-2.5,0.2-1.1,0.6c-4.4-1-12.3,0.1-16.2-0.8
					c-3.1,0.1-6.9,0.2-9.7,0.2c0.2-0.1,0-0.2,0.5-0.1c-3.9-0.3-2.4,1-6.9,0.6c-2.3-0.5,2.4-0.3,0.9-0.5c-0.6-1.1-5.4,0.2-8.4-0.5
					l0.7-0.1c-2.3-0.4-5.6,0.4-9.3,0.3c0,0,0.2-0.1,0-0.2c-2.6,0.6-7.4,0.7-11,0.9c1.1-0.4,1.6-0.2,1-0.7c-1.6,0.1,0.5,0.7-2.8,0.8
					c-1-0.2-3.4-0.4-3.7-0.9l3,0c-1.6-0.6-3.9,0-5.5-0.1l0.2-0.3c-4.7,0.1-4.7,0.8-9.7,0.7l0.5,0.2c-2.7,0.7-2.3-0.4-5,0.1l-0.8-0.7
					c-1.8,0.2-6.3,0.6-9.6,0.8c1.8-0.5,5.6-0.7,8-1c-1.8,0-6.1,0-7,0.4c0.7-0.1,1.6-0.2,2.3-0.1c-2.2,0.5-5.1,0.8-8.7,0.8
					c0.6-1.3-9.3-0.3-11.9-1.3c-6.3,0.5-12.5-0.2-19.9-0.1c2.6,1-2.1,0-1.7,1.1c-1.7,0.1-2.4,0-2.5,0l-5.2-0.6
					c-1.2-0.3,1.6-0.2,1.5-0.5c-3.8-0.1-1.6-0.4-4.1-0.7c0.5,0.4-1.3,0.5-3.4,0.4l3,0.5c-5.2,0.6-4.5-0.9-9.8-0.3l1.7-0.3
					c-2.7,0.2-10,0-12.7,0.8c-0.5-0.1-1.1-0.4,0.1-0.5c-6.5-0.1-14.4,0.9-19.5,0.4l0.5-0.3c-1.2,0.1-2.1,0.5-3.6,0.2
					c0.1-0.1,0.5-0.3-0.1-0.3c-0.6,0.1-3.2,0.4-4.8,0.3l1.4-0.3c-6.3-0.3-9.7,0.7-15,0.9c0-0.7-5-1-7.4-1.1l0.1-0.1
					c-7.4-0.1-12.5,0.6-19.3,0.9c-4.2-0.8-14.3-0.3-21.1-0.8c1,0.1-0.2,0.6-1.4,0.7c-1.6-0.2-4.4,0.5-4.2-0.2l0.6,0
					c-1.2-0.7-4.5-0.5-7-0.5l-0.4,0.9c-6.7-1.3-17.6,0.5-21.2-0.7c-1.6,0.2-3.6,0.2-5.2,0.4l0.1-0.5c-4.5-0.1-6.7-0.2-12.3-0.1
					l1.1-0.3c-3.1,0-3.9,1.4-6.8,1.4l-0.9-0.7c-5.4,0-11-0.6-16.3,0c0.1-0.1,0.2-0.3,1.1-0.3c-2.6,0-9.9-0.5-9,0.5
					c-0.1-0.6-5.6-0.1-8.6,0.2l0.5-0.5c-2.5,0.6-2.6,0.8-6,0.9c-0.8-0.1-0.7-0.4,0.4-0.3c-2.7-0.2-2.1,0.4-5.5,0.2l1.2-0.3
					c-2.8,0-2.6,0.1-4.1,0.5c-1.8,0.2-5.3-0.1-5.8-0.5c-0.4,0.3-1.9,0.6-3.6,0.5c-0.2-0.2,0.4-0.3,0.7-0.3c-4.7-0.3-7,0.5-10.2,0.1
					c-0.1-0.2-0.3-0.2-0.5-0.3c3.7,0,6.8,0,6.5,0.1c0-0.4-3-0.5-0.6-1.1c-2.4,0.3-6.6,1-9.5,0.8c-0.1,0-0.3-0.1-0.4-0.2l0.3,0
					c-0.7,0-1.3,0-1.9,0.1c-0.9-0.1-1.5-0.1-2.4-0.1c-0.3-0.4-3.5-0.2-5-0.2c0.1,0.5-1.8,0.4,0,0.8c-0.2,0,0.3-0.1,1.3-0.1
					c0.2,0,0.5,0,0.6,0c0,0-0.1,0-0.1,0c1,0,2.3,0,3.7,0c-1.2,0.2-2.4,0.4-4.1,0.2c-0.8,0.3-1.6,0.6-2.1,0.8c-2.1-0.7-6-1-6.6-1.4
					c-4.6,0.3-10.8,0.2-13.7,1.1c-1.3,0.1-1.5-0.3-2-0.4c0.8-0.1,1.7-0.1,2.1-0.2c-2.6,0.2-7.8,0.1-8.4,0.7
					c-3.3-0.3,1.9-0.6-2.7-0.5l0.6-0.2c-8.9-1-14.5,1.6-24.4,0.3c0.7,0.1,1,0.1,1.2,0.2c-2.4-0.1-4.9-0.2-7.4-0.2
					c-0.1,0.9-0.3,1.8-0.3,2.7c2.7-0.1,1.1,0.5,2.3,0.8c2.4-0.2,4.3-0.7,6-0.7C146.7,718.9,147.1,718.9,146.6,719.1z M205,715.1
					c-0.5,0-1,0-1.8,0.1c0,0-0.1,0-0.1,0.1c0.1-0.1,0.2-0.2,0.4-0.2C204.6,714.9,204.9,715,205,715.1z M214.9,717.9
					c-0.3,0.1,1.1,0.2,2.1,0.3c-0.8,0-1.7,0-2.7,0C214,718.1,214.2,717.9,214.9,717.9z"/>
			</g>
			<g>
				<path class="st4" d="M209.1,718.3c0.4,0,0.9,0,1.6,0c0,0,0,0,0,0C209.8,718.3,209.4,718.3,209.1,718.3z"/>
			</g>
		</g>
		<g>
			<g>
				<path class="st4" d="M201.8,715.6c-0.1,0-0.2,0-0.4,0c0.2,0,0.4,0.1,0.6,0.1c0.1-0.1,0.2-0.1,0.4-0.1
					C202.1,715.6,201.9,715.6,201.8,715.6z"/>
			</g>
		</g>
		<g>
			<g>
				<path class="st4" d="M776,716.3l-0.1,0c0.1,0,0.2,0,0.3,0.1C776.1,716.3,776.1,716.3,776,716.3z"/>
			</g>
		</g>
		<g>
			<g>
				<polygon class="st4" points="304.4,719.2 304.4,719 303.9,719.1 				"/>
			</g>
		</g>
		<g>
			<g>
				<path class="st4" d="M810.9,717.9c0.1,0,0.2,0.1,0.5,0.1C811.3,718,811.1,718,810.9,717.9z"/>
			</g>
		</g>
		<g>
			<g>
				<path class="st4" d="M826,718l2.1,0.2C827.2,718.1,826.5,718.1,826,718z"/>
			</g>
		</g>
		<g>
			<g>
				<path class="st4" d="M837.6,718.3c0.1-0.1,0.2-0.1,0.2-0.2c0,0,0,0,0,0L837.6,718.3z"/>
			</g>
		</g>
		<g>
			<g>
				<path class="st4" d="M653.3,718.8c-0.2,0-0.3,0-0.4,0C651.8,718.9,652.5,718.9,653.3,718.8z"/>
			</g>
		</g>
		<g>
			<g>
				<path class="st4" d="M708.1,717.7c-0.6,0.1-1.2,0.2-1.8,0.2C707.4,718,708.1,718,708.1,717.7z"/>
			</g>
		</g>
		<g>
			<g>
				<path class="st4" d="M592.1,719.4C592.1,719.4,592.1,719.4,592.1,719.4c-0.1,0-0.2,0-0.4,0L592.1,719.4z"/>
			</g>
		</g>
		<g>
			<g>
				<path class="st4" d="M703.8,717.9c1,0.1,1.8,0.1,2.5,0C705.6,717.9,704.6,717.9,703.8,717.9z"/>
			</g>
		</g>
		<g>
			<g>
				<path class="st4" d="M887.8,718.5l0.6,0c0,0,0-0.1,0.1-0.1L887.8,718.5z"/>
			</g>
		</g>
		<g>
			<g>
				<path class="st4" d="M888.4,718.4l0.6-0.1C888.7,718.4,888.5,718.4,888.4,718.4z"/>
			</g>
		</g>
		<g>
			<g>
				<path class="st4" d="M890.3,718.2l-1.3,0.1C889.5,718.4,890,718.4,890.3,718.2z"/>
			</g>
		</g>
		<g>
			<g>
				<path class="st4" d="M872.4,718.3l-0.2,0.2C872.4,718.4,872.4,718.3,872.4,718.3z"/>
			</g>
		</g>
		<g>
			<g>
				<path class="st4" d="M867.8,718.3c1.1,0,2.8,0.4,4.3,0.3l0.1-0.1C871.5,718.7,868.8,718,867.8,718.3z"/>
			</g>
		</g>
		<g>
			<g>
				<path class="st4" d="M848.3,716.2l3.9,0.1c-0.7-0.2-1.6-0.4,0.2-0.5C847.5,715.3,853.4,716.2,848.3,716.2z"/>
			</g>
		</g>
		<g>
			<g>
				<path class="st4" d="M836.2,715.9c2.1-0.1,0-0.3,0.1-0.4C835,715.7,834.6,715.7,836.2,715.9z"/>
			</g>
		</g>
		<g>
			<g>
				<path class="st4" d="M748.7,715.9l0.2-0.4C747.3,715.5,748.9,715.6,748.7,715.9z"/>
			</g>
		</g>
		<g>
			<g>
				<polygon class="st4" points="732,718.1 733.5,718.4 734.3,718 				"/>
			</g>
		</g>
		<g>
			<g>
				<polygon class="st4" points="722.1,715.1 722.8,715 720.1,715.2 				"/>
			</g>
		</g>
		<g>
			<g>
				<path class="st4" d="M575.1,715.2l0.5,0.5C576.6,715.7,576.9,715.1,575.1,715.2z"/>
			</g>
		</g>
		<g>
			<g>
				<path class="st4" d="M511.6,715.8c-0.7-0.3-2.5-0.4-3.6-0.2C509.4,715.6,510.9,715.8,511.6,715.8z"/>
			</g>
		</g>
		<g>
			<g>
				<polygon class="st4" points="321.3,714.9 322.5,714.7 320.1,714.9 				"/>
			</g>
		</g>
	</g>
	<g>
		<g>
			<path class="st10" d="M776.2,641.3c0,0,0.4,10.1,1.3,28.5c0.5,10.8-2,22.5-3.4,31.1c0,0-4.2,3.4-5.1,7.2c-1,4.2,2.3,7.2,5.2,7.4
				c5.5,0.3,12,3.1,14.6-19.7c1.7-15.3,5.6-35.9,3.9-43.8c-1.7-7.8-10.9-14.6-16.1-12.6L776.2,641.3z"/>
		</g>
		<g>
			<path class="st4" d="M773.7,701.3c0,0,1.7-2,3.4,7.8c0,0,0.6,5.6,4.6,5.7c0,0-4.2,3.2-10.3-0.3
				C771.3,714.5,764.5,710.2,773.7,701.3z"/>
		</g>
		<path class="st11" d="M865.2,667.8c0,0-31.2-9.5-38.6,6.5c-7.3,16.1-0.9,26.6,2,29c0,0-18.5-1.4-19.8,5.3
			c-1.3,6.7,6.5,7.5,6.5,7.5l64.9,0.5C880.1,716.6,880.3,677.3,865.2,667.8z"/>
		<g>
			<path class="st10" d="M768.8,599.1c0,0,5.9-13.7,22.4-13.5c16.5,0.2,22.6,6.5,23,13.5c0.7,11.7-6,26.1-22.5,26.1
				C775.1,625.3,768.6,612.9,768.8,599.1z"/>
		</g>
		<g>
			<path class="st4" d="M786.3,586l-1.9,0.4c-1.9-2.9-7.7-11.2-13.7-12.1c0,0-3.3,5.7-2,24.8C768.8,599.1,784,599.1,786.3,586z"/>
		</g>
		<g>
			<path class="st4" d="M796.4,586l2.2,0.1c1.9-3,7.5-10.9,13.6-11.8c0,0,3.3,5.7,2,24.8C814.2,599.1,800.9,599.1,796.4,586z"/>
		</g>
		<g>
			<path class="st10" d="M775.3,615.2c0,0-1.7,17.8,0,26.8c3.5,18.1,17.8,30.2,20.1,33.1c2.7,3.6,17.6,33,22.4,37.2
				c0,0,25,6,67.2,4.2c0,0,0.1-74.6-52-95.4c0,0-14.1-3-19.5-14.3C813.5,606.9,779,595.2,775.3,615.2z"/>
			<path class="st7" d="M782.7,631.1c0,0,2.5-5.2,7.7-4.5c8.8,1,6.1,12.9,6.9,17.5c1,5.4,3.8,14.7,22,18.9
				c15.3,3.5,13.1-8.6,38.6,3.5c32.3,15.4-38.1,53.4-45.1,39.3C803,685.9,780.9,666.3,782.7,631.1z"/>
		</g>
		<g>
			<path class="st4" d="M821.3,615.9c0,0,7.4,4.4,11.7,5.3c4.3,0.9,26.1,8.5,39.6,40.4c0,0-36.4-4.5-44.5-14.7
				C811.5,625.9,813.2,615.9,821.3,615.9z"/>
		</g>
		<g>
			<path class="st10" d="M802.2,639.4c-5.7,0.9-6.2,9.2-3,30.4c1.6,10.7-2,22.5-3.4,31.1c0,0-4.2,3.4-5.1,7.2
				c-1,4.2,1.8,8.1,4.7,8.3c5.5,0.3,12.5,2.2,15.1-20.6c1.7-15.3,5.6-35.9,3.9-43.8C812.6,644.1,808.1,638.4,802.2,639.4z"/>
		</g>
		<g>
			<path class="st10" d="M803,587.3c0,0,4.4-10.8,9.7-11.9c0,0,2.6,7.3,1.7,18.5C814.3,593.9,808.7,588.4,803,587.3z"/>
		</g>
		<g>
			<path class="st10" d="M780,587.3c0,0-4.4-10.8-9.7-11.9c0,0-2.6,7.3-1.7,18.5C768.7,593.9,774.3,588.4,780,587.3z"/>
		</g>
		<g>
			<g>
				<path class="st12" d="M784.8,601.4c0,2-1.7,3.7-3.7,3.7c-2,0-3.7-1.7-3.7-3.7c0-2,1.7-3.7,3.7-3.7
					C783.1,597.7,784.8,599.4,784.8,601.4z"/>
			</g>
			<g>
				<path class="st4" d="M781.1,597.7c0,0-4.2,3.7,0,7.4C781.1,605.1,784.8,601.4,781.1,597.7z"/>
			</g>
		</g>
		<g>
			<g>
				<path class="st2" d="M804.8,601.4c0,2-1.7,3.7-3.7,3.7c-2,0-3.7-1.7-3.7-3.7c0-2,1.7-3.7,3.7-3.7
					C803.2,597.7,804.8,599.4,804.8,601.4z"/>
			</g>
			<g>
				<path class="st4" d="M801.1,597.7c0,0-4.2,3.7,0,7.4C801.1,605.1,804.8,601.4,801.1,597.7z"/>
			</g>
		</g>
		<g>
			<path class="st4" d="M788.7,606.9c0,0,2.9-1.5,5.9,0C794.6,606.9,792.4,614.6,788.7,606.9z"/>
		</g>
		<g>
			<path class="st4" d="M774.5,630.2c0,0,8.1-3,11.8,5.4c3.7,8.4,8.3,28.4,2.4,28.4c-6,0.1-9.4-3.1-11.9-8.3c0,0-0.2-5.6-0.5-8.2
				C775.8,643,774.5,639.3,774.5,630.2z"/>
		</g>
		<g>
			<path class="st4" d="M820.4,637.5c0,0-5.4-1.2-4.2,6.8c1.2,8-5.8,15.2-2.2,17.7c3.5,2.5,13,10.4,19.5,2
				C839.9,655.6,831.8,640.5,820.4,637.5z"/>
		</g>
		<path class="st4" d="M806,712.3c0,0,2.9-4.9,3.8-11.8c0.9-6.9,3.9-29.1,3.9-29.1s-1.2-5.4-4.4-3.6c-3.3,1.8-1.1,11-4.4,14.8
			c-2.3,2.7-3.8,8.8-1.3,15.6c1.2,3.2,0.6,11.3-0.9,12.8C801.2,712.5,803.4,715.1,806,712.3z"/>
		<path class="st10" d="M870,667.8c0,0-31.2-9.5-38.6,6.5c-7.3,16.1-0.9,26.6,2,29c0,0-18.5-1.4-19.8,5.3c-1.3,6.7,6.5,7.5,6.5,7.5
			l64.9,0.5C885,716.6,886.7,682.8,870,667.8z"/>
		<g>
			<path class="st4" d="M861.9,669.2c0,0,11.1,10.5,2.9,24.2c0,0-1.4,6.3-6.5,3.3c-5-3-1.3-8.8-9.5-15.8
				C840.6,673.8,852.9,660.3,861.9,669.2z"/>
		</g>
		<path class="st10" d="M885,716.6c0,0,2.8,27.3-18.5,32.9c-18.2,4.8-52.2,1-55.7-6.6c-3.5-7.7-0.4-15.7,12-11.9
			c12.4,3.8,25.5,13.3,45,2.1c8-4.6,6.8-10.7,7.5-16.6C875.3,716.4,878,710.2,885,716.6z"/>
		<path class="st4" d="M809.8,734.4c0,0,4.2,8,9.4,5.4c5.2-2.6,13,2.4,19.3-3.3c0,0-17-6.4-21.2-6.6
			C813.1,729.7,810.2,732.2,809.8,734.4z"/>
		<path class="st4" d="M862.6,750.3c0,0-0.8-9.4,7.5-10.8c8.3-1.4,7.7-11.1,13.9-9.6C883.9,729.9,882,747.2,862.6,750.3z"/>
		<path class="st4" d="M882,689.7c0,0-13.2,10.2-10.1,15.4c3.1,5.2,13.2,4.5,13.2,4.5S884.6,698.4,882,689.7z"/>
	</g>
</g>
</svg>
